<svg width="48" height="45" viewBox="0 0 48 45" fill="none" xmlns="http://www.w3.org/2000/svg">
                    <path fill-rule="evenodd" clip-rule="evenodd"  d="M3.22277 0.0866453C1.67288 0.347627 0.384338 1.62216 0.100622 3.17469C0.0396963 3.50824 0.0165989 10.1856 0.0324215 22.862L0.0564289 42.0446L0.26767 42.5677C0.687241 43.6068 1.57949 44.4676 2.5975 44.8153C3.13202 44.9979 3.30233 45 17.7901 45C31.1906 45 32.4805 44.9871 32.8903 44.8493C34.2192 44.4025 35.2268 43.2555 35.4753 41.9067C35.5333 41.5917 35.559 39.2681 35.5443 35.6618L35.5209 29.9186L34.3387 31.1919L33.1566 32.4651L33.1111 37.0892C33.067 41.576 33.0601 41.7208 32.8784 41.9699C32.7755 42.111 32.511 42.3186 32.2909 42.4311L31.8904 42.6357H17.7887H3.6869L3.28642 42.4311C3.06627 42.3186 2.80183 42.111 2.69889 41.9698L2.51166 41.713V22.5392V3.36538L2.69917 3.11422C2.80229 2.97609 2.99962 2.77876 3.13774 2.67564C3.38754 2.48913 3.44338 2.48804 13.976 2.46431L24.5633 2.44039V5.43896C24.5633 8.2421 24.5755 8.47008 24.7502 8.93721C24.8825 9.29067 25.069 9.55538 25.3873 9.84164C26.1429 10.5209 26.2396 10.5358 29.8991 10.5358H33.1111V13.2153V15.8947L34.3352 14.6021L35.5592 13.3093L35.5628 11.2377C35.5654 9.68487 35.5352 9.09143 35.442 8.86855C35.2774 8.47462 26.5858 0.25733 26.1755 0.107651C25.821 -0.0215664 3.98434 -0.0415723 3.22277 0.0866453ZM27.0185 6.11142V8.0806H29.131H31.2435L30.9724 7.82271C30.1033 6.99576 27.3932 4.4615 27.2217 4.31546L27.0185 4.14223V6.11142ZM42.0682 8.70551C41.3185 8.90147 40.4496 9.63713 39.0382 11.271L38.7566 11.597L41.9068 14.5447C43.6394 16.1659 45.125 17.5413 45.2081 17.6014C45.3382 17.6952 45.5081 17.55 46.4319 16.5556C47.7195 15.1695 47.9704 14.7145 47.9724 13.7607C47.9748 12.6943 47.7497 12.3523 45.905 10.6182C44.8112 9.59012 44.1965 9.08116 43.8587 8.92384C43.3451 8.6845 42.529 8.58502 42.0682 8.70551ZM7.07412 9.59557C7.04047 9.62922 7.01292 10.1819 7.01292 10.8238V11.9908H13.6538H20.2946L20.2693 10.7859L20.2439 9.58102L13.6896 9.55765C10.0848 9.54483 7.10776 9.56193 7.07412 9.59557ZM36.6576 13.8002C35.8823 14.6335 32.3836 18.3839 28.8827 22.1346C25.3817 25.8852 22.4675 29.017 22.4067 29.094C22.3051 29.2226 20.2684 37.8255 20.3259 37.883C20.3397 37.8968 22.2748 37.3249 24.626 36.6118L28.9009 35.3155L36.7908 26.8715C44.3951 18.7331 44.6745 18.4219 44.511 18.2696C43.1759 17.0259 38.6236 12.7953 38.3853 12.577L38.067 12.2851L36.6576 13.8002ZM37.2489 16.2874C36.6078 16.9094 25.9197 28.3836 25.7657 28.6152C25.549 28.941 25.7086 29.4546 26.0848 29.6425C26.2465 29.7233 26.4852 29.769 26.6152 29.7441C26.7845 29.7117 28.5196 27.9142 32.717 23.4225C35.9429 19.9705 38.6217 17.0426 38.6698 16.9161C38.7761 16.6362 38.6293 16.2276 38.3526 16.0337C38.0095 15.7935 37.6799 15.8692 37.2489 16.2874ZM7.03301 18.1971L7.05838 19.4019H13.6511H20.2439L20.2693 18.1971L20.2946 16.9922H13.6511H7.00764L7.03301 18.1971ZM40.0118 18.1437C39.8839 18.1779 29.436 29.275 28.4053 30.4714C28.1571 30.7595 28.0188 31.0077 28.0188 31.1651C28.0188 31.6625 28.5146 32.0579 28.9888 31.939C29.1386 31.9013 31.2755 29.6794 35.1206 25.5634C40.4667 19.8404 41.0224 19.2173 41.0224 18.9447C41.0224 18.5188 40.9459 18.3684 40.6521 18.2164C40.3943 18.0831 40.2851 18.0707 40.0118 18.1437ZM7.01292 25.5855V26.8131H13.6511H20.2894V25.5855V24.3579H13.6511H7.01292V25.5855ZM23.6971 30.9279C23.6739 30.9905 23.4918 31.7507 23.2923 32.6176L22.9296 34.1937L23.3703 34.6229L23.811 35.0521L25.4729 34.5473C26.387 34.2696 27.1267 34.0015 27.1168 33.9515C27.097 33.8516 23.8784 30.8142 23.7924 30.8142C23.7631 30.8142 23.7202 30.8654 23.6971 30.9279ZM9.99102 31.7918L7.01292 31.817V32.9979V34.1788H10.0138H13.0146V32.9512C13.0146 32.276 13.0043 31.7332 12.9919 31.745C12.9794 31.7568 11.6289 31.7779 9.99102 31.7918Z" fill="#2B2F26" />
                </svg>